# xmcd
#
# Track frame offsets:
#	150
#	19121
#	41788
#	62246
#	83307
#	99570
#	119552
#	136945
#	159272
#	177017
#	198413
#	216136
#	248398
#
# Disc length: 3673 seconds
#
# Revision: 1
# Processed by: cddbd v1.5PL3 Copyright (c) Steve Scherf et al.
# Submitted via: audiograbber 1.82.01
#
DISCID=a30e570d
DTITLE=Katia Hareb - Katia
DYEAR=1900
DGENRE=Ethnic
TTITLE0=Ad El Hob
TTITLE1=Abadan
TTITLE2=El Talleh
TTITLE3=Sa3ban 3alaya
TTITLE4=Dillouni
TTITLE5=Te3ebt
TTITLE6=Ya Trekni fill
TTITLE7=Saher 3youni
TTITLE8=Min 3ayni
TTITLE9=Ma Fina
TTITLE10=Ajmal Gheniyyeh
TTITLE11=Abadan
TTITLE12=Data Track
EXTD=
EXTT0=
EXTT1=
EXTT2=
EXTT3=
EXTT4=
EXTT5=
EXTT6=
EXTT7=
EXTT8=
EXTT9=
EXTT10=
EXTT11=
EXTT12=
PLAYORDER=
